# xmcd
#
# Track frame offsets: 
#        150
#        11890
#        23642
#        35076
#        47790
#        59769
#        72030
#        84307
#        95216
#        104264
#        115401
#
# Disc length: 1678 seconds
#
# Revision: 0
# Processed by: cddbd v1.5.2PL0 Copyright (c) Steve Scherf et al.
# Submitted via: ExactAudioCopyFreeDBPlugin 1.0
#
DISCID=97068c0b
DTITLE=Loretta Lynn - Entertainer Of The Year
DYEAR=1973
DGENRE=Country
TTITLE0=Rated X
TTITLE1=Til The Pain Outwears The Shame
TTITLE2=Ruby, Madge And Mable
TTITLE3=Legend In My Mind
TTITLE4=Ain't It Funny
TTITLE5=Yesterday Will Come Again Tonight
TTITLE6=Hanky Panky Woman
TTITLE7=I'm All He's Got (But He's Got All Of Me)
TTITLE8=I'm Paying For My Raising
TTITLE9=Possessions
TTITLE10=I Need Someone To Hold Me (When I Cry)
EXTD=
EXTT0=
EXTT1=
EXTT2=
EXTT3=
EXTT4=
EXTT5=
EXTT6=
EXTT7=
EXTT8=
EXTT9=
EXTT10=
PLAYORDER=
